<svg width="31" height="30" viewBox="0 0 31 30" fill="none" xmlns="http://www.w3.org/2000/svg">
<path fill-rule="evenodd" clip-rule="evenodd" d="M13.0814 0.130652C9.96211 0.580079 6.7976 2.19368 4.50711 4.50269C0.0799282 8.96554 -1.21622 15.5881 1.20103 21.3946C2.51899 24.5606 5.37387 27.5993 8.48007 29.1428C11.2872 30.5378 11.7683 30.3275 11.578 27.7892L11.479 26.4684L10.6149 26.549C10.1243 26.5949 9.35314 26.5548 8.83086 26.4562C7.545 26.2136 6.92944 25.7144 6.27437 24.3833C5.78392 23.3863 5.26041 22.7445 4.43056 22.1227C3.9323 21.7494 4.04904 21.3798 4.66529 21.3798C5.31515 21.3798 6.23801 21.8811 6.74067 22.5071C8.46388 24.6531 9.17177 24.9833 10.93 24.4612C11.4558 24.3051 11.6409 24.1838 11.6409 23.995C11.6409 23.8547 11.8217 23.396 12.0428 22.9758L12.4447 22.2117L11.9399 22.1251C7.47449 21.3596 5.48046 18.9346 5.63041 14.4518C5.67362 13.1566 5.73453 12.827 6.05981 12.1254C6.26819 11.6758 6.59484 11.1033 6.78567 10.8531C7.10216 10.4381 7.11835 10.3546 6.9695 9.90322C6.78498 9.34432 6.86235 7.61617 7.10819 6.8036C7.24977 6.33565 7.30753 6.28915 7.74831 6.28915C8.33356 6.28915 9.78583 6.84407 10.8183 7.46224L11.5734 7.91427L12.4646 7.69107C13.6933 7.38336 17.1318 7.38281 18.3587 7.69025L19.2462 7.91249L20.1421 7.39392C21.2544 6.7501 22.4817 6.28915 23.0832 6.28915C23.5228 6.28915 23.5485 6.31919 23.7639 7.08703C24.0208 8.0029 24.056 9.34514 23.8392 9.96701C23.709 10.3403 23.734 10.4501 24.0395 10.8506C24.2314 11.1022 24.5586 11.6758 24.7667 12.1254C25.0875 12.8182 25.1532 13.1666 25.1987 14.412C25.3254 17.8767 24.1787 20.0742 21.6017 21.3054C20.8504 21.6645 18.9578 22.2029 18.4475 22.2029C18.4119 22.2029 18.5761 22.5774 18.8122 23.0354L19.2415 23.8677L19.298 26.7737C19.3333 28.5922 19.4106 29.7492 19.5046 29.8654C19.8709 30.3179 21.901 29.5504 23.9894 28.17C25.5643 27.1291 27.2572 25.4123 28.3263 23.7722C32.3038 17.6704 31.4737 9.69799 26.32 4.50269C23.973 2.13675 20.8754 0.578707 17.6176 0.125576C16.3987 -0.0438507 14.2761 -0.0415185 13.0814 0.130652Z" fill="white"/>
</svg>
