<svg width="30" height="30" viewBox="0 0 30 30" fill="none" xmlns="http://www.w3.org/2000/svg">
<path fill-rule="evenodd" clip-rule="evenodd" d="M2.75362 0C1.23284 0 0 1.23284 0 2.75362V27.2464C0 28.7672 1.23284 30 2.75362 30H27.2464C28.7672 30 30 28.7672 30 27.2464V2.75362C30 1.23284 28.7672 0 27.2464 0H2.75362ZM6.81159 9.71014C8.57248 9.71014 10 8.28263 10 6.52174C10 4.76085 8.57248 3.33333 6.81159 3.33333C5.0507 3.33333 3.62319 4.76085 3.62319 6.52174C3.62319 8.28263 5.0507 9.71014 6.81159 9.71014ZM4.49275 11.7391C4.49275 11.3389 4.81718 11.0145 5.21739 11.0145H8.69565C9.09587 11.0145 9.42029 11.3389 9.42029 11.7391V25.942C9.42029 26.3422 9.09587 26.6667 8.69565 26.6667H5.21739C4.81718 26.6667 4.49275 26.3422 4.49275 25.942V11.7391ZM16.3768 19.8551C16.3768 15.4348 17.8261 15 19.2754 15C20.291 15 21.8795 15.3613 21.8841 19.1141V26.0145C21.8841 26.6186 22.195 26.601 22.2984 26.5951C22.3066 26.5946 22.3135 26.5942 22.3189 26.5942H26.3768C26.7826 26.5942 26.8841 26.2077 26.8841 26.0145V18.5507C26.8889 18.4792 26.8827 18.4072 26.8841 18.3333C26.9566 14.4203 25.5797 10.7246 21.3768 10.7246C18.1158 10.7246 16.8662 12.105 16.3768 12.9163V11.6667C16.3768 11.2665 16.0524 10.942 15.6522 10.942H12.1739C11.7737 10.942 11.4493 11.2665 11.4493 11.6667V25.8696C11.4493 26.2698 11.7737 26.5942 12.1739 26.5942H15.6522C16.0524 26.5942 16.3768 26.2698 16.3768 25.8696V19.8551Z" fill="white"/>
</svg>
