<?xml version="1.0" encoding="UTF-8" standalone="no"?>
<!-- Created with Inkscape (http://www.inkscape.org/) -->

<svg
   width="210mm"
   height="297mm"
   viewBox="0 0 210 297"
   version="1.1"
   id="svg5"
   inkscape:version="1.1.1 (c3084ef, 2021-09-22)"
   sodipodi:docname="openOpus.svg"
   xmlns:inkscape="http://www.inkscape.org/namespaces/inkscape"
   xmlns:sodipodi="http://sodipodi.sourceforge.net/DTD/sodipodi-0.dtd"
   xmlns="http://www.w3.org/2000/svg"
   xmlns:svg="http://www.w3.org/2000/svg">
  <sodipodi:namedview
     id="namedview7"
     pagecolor="#505050"
     bordercolor="#ffffff"
     borderopacity="1"
     inkscape:pageshadow="0"
     inkscape:pageopacity="0"
     inkscape:pagecheckerboard="1"
     inkscape:document-units="mm"
     showgrid="false"
     inkscape:snap-smooth-nodes="true"
     inkscape:zoom="0.25879279"
     inkscape:cx="65.68962"
     inkscape:cy="937.04311"
     inkscape:window-width="2332"
     inkscape:window-height="969"
     inkscape:window-x="0"
     inkscape:window-y="25"
     inkscape:window-maximized="0"
     inkscape:current-layer="layer1" />
  <defs
     id="defs2" />
  <g
     inkscape:label="Camada 1"
     inkscape:groupmode="layer"
     id="layer1">
    <path
       id="path2739"
       style="opacity:1;fill:#ffffff;stroke-width:2.16345;stroke-linecap:round;stroke-linejoin:round"
       d="M 32.651894,7.5858725 A 23.259037,23.06734 0 0 0 9.3928501,30.6532 23.259037,23.06734 0 0 0 32.651894,53.720524 23.259037,23.06734 0 0 0 34.041989,53.668849 V 39.161723 26.382142 25.942891 h 0.02274 a 5.096652,7.9801682 65.482272 0 1 4.479314,-5.636347 5.096652,7.9801682 65.482272 0 1 5.543849,-1.542026 5.096652,7.9801682 65.482272 0 1 4.43177,1.799892 5.096652,7.9801682 65.482272 0 1 -3.855063,8.054287 5.096652,7.9801682 65.482272 0 1 -9.281086,0.45062 v 6.664708 a 5.096652,7.9801682 65.482272 0 1 3.16053,-2.6479 5.096652,7.9801682 65.482272 0 1 9.975619,0.258382 5.096652,7.9801682 65.482272 0 1 -3.855063,8.05429 5.096652,7.9801682 65.482272 0 1 -9.281086,0.450101 V 53.545341 A 23.259037,23.06734 0 0 0 55.910939,30.6532 23.259037,23.06734 0 0 0 32.651894,7.5858725 Z M 21.421054,18.764518 a 7.9801682,5.096652 24.517728 0 1 5.543849,1.542026 7.9801682,5.096652 24.517728 0 1 3.855061,8.05429 7.9801682,5.096652 24.517728 0 1 -9.976135,0.257863 7.9801682,5.096652 24.517728 0 1 -3.855061,-8.054287 7.9801682,5.096652 24.517728 0 1 4.432286,-1.799892 z m 0,12.779581 a 7.9801682,5.096652 24.517728 0 1 5.543849,1.542026 7.9801682,5.096652 24.517728 0 1 3.855061,8.05429 7.9801682,5.096652 24.517728 0 1 -9.976135,0.258382 7.9801682,5.096652 24.517728 0 1 -3.855061,-8.05429 7.9801682,5.096652 24.517728 0 1 4.432286,-1.800408 z" />
    <path
       style="fill:#000000;stroke-width:0.352778"
       id="path1166"
       d="" />
    <path
       style="fill:#000000;stroke-width:0.352778"
       id="path874"
       d="" />
    <path
       style="fill:#000000;stroke-width:0.352778"
       id="path854"
       d="" />
    <path
       style="fill:#000000;stroke-width:0.264583"
       id="path1218"
       d="" />
    <path
       style="fill:#000000;stroke-width:0.264583"
       id="path1198"
       d="" />
  </g>
</svg>
